<svg width="32" height="32" viewBox="0 0 32 32" fill="none" xmlns="http://www.w3.org/2000/svg">
<rect x="0.5" y="0.5" width="31" height="31" fill="white" stroke="#777777"/>
<g clip-path="url(#clip0_6_13008)">
<path d="M9.71439 10.8572C9.41129 10.8572 9.1206 10.9776 8.90627 11.1919C8.69194 11.4062 8.57153 11.6969 8.57153 12V22.2857C8.57153 22.5889 8.69194 22.8795 8.90627 23.0939C9.1206 23.3082 9.41129 23.4286 9.71439 23.4286H22.2858C22.5889 23.4286 22.8796 23.3082 23.0939 23.0939C23.3083 22.8795 23.4287 22.5889 23.4287 22.2857V12C23.4287 11.6969 23.3083 11.4062 23.0939 11.1919C22.8796 10.9776 22.5889 10.8572 22.2858 10.8572H20.0001" stroke="#111111" stroke-width="1.4" stroke-linecap="round" stroke-linejoin="round"/>
<path d="M8.57153 15.4287H23.4287" stroke="#111111" stroke-width="1.4" stroke-linecap="round" stroke-linejoin="round"/>
<path d="M12 8.57153V13.143" stroke="#111111" stroke-width="1.4" stroke-linecap="round" stroke-linejoin="round"/>
<path d="M20 8.57153V13.143" stroke="#111111" stroke-width="1.4" stroke-linecap="round" stroke-linejoin="round"/>
<path d="M9.6001 10.8572H19.3121" stroke="#111111" stroke-width="1.4" stroke-linecap="round" stroke-linejoin="round"/>
<rect x="11.2" y="18.8" width="1.6" height="1.6" fill="#111111"/>
<rect x="15.2" y="18.8" width="1.6" height="1.6" fill="#111111"/>
<rect x="19.2" y="18.8" width="1.6" height="1.6" fill="#111111"/>
</g>
<defs>
<clipPath id="clip0_6_13008">
<rect width="16" height="16" fill="white" transform="translate(8 8)"/>
</clipPath>
</defs>
</svg>
