<svg width="20" height="20" viewBox="0 0 20 20" fill="none" xmlns="http://www.w3.org/2000/svg">
<g opacity="0.4">
<path fill-rule="evenodd" clip-rule="evenodd" d="M13.2585 12.8933L16.2266 13.4773C18.1239 13.8493 19.5 15.4987 19.5 17.3987V18.6667C19.5 19.4013 18.8906 20 18.1429 20H1.85714C1.10936 20 0.5 19.4013 0.5 18.6667V17.3987C0.5 15.4987 1.87614 13.8493 3.77207 13.4773L6.74014 12.8933C7.05636 12.832 7.28571 12.5573 7.28571 12.24V11.572C7.09203 11.3077 6.90901 10.9557 6.71817 10.5886L6.713 10.5787L6.70325 10.5599C6.55678 10.2788 6.34304 9.86844 6.24614 9.76933C5.67343 9.21867 5.06 8.53333 4.87271 7.63467C4.70171 6.82533 4.87136 6.404 5.04371 6.07067L5.06271 5.60267L5.06242 5.58796C5.04617 4.78651 5.02608 3.79496 5.24864 3.18933C5.98421 1.18267 8.18279 0.0666667 9.97421 0C10.8496 0.0213333 11.5648 0.210667 12.2691 0.593333C12.3465 0.634667 12.5677 0.672 12.7292 0.698667C13.1364 0.766667 13.6439 0.852 13.9886 1.21733C14.4759 1.74 14.6699 2.32667 14.693 3.36533C14.9237 4.22533 14.9237 5.41867 14.9237 6.07067C15.1205 6.404 15.2901 6.82533 15.1205 7.636C14.9332 8.53067 14.3198 9.21733 13.7444 9.77067C13.6474 9.86992 13.4314 10.2883 13.2862 10.5696L13.2829 10.576C13.0929 10.948 12.9097 11.304 12.7143 11.5707V12.24C12.7143 12.5573 12.9436 12.832 13.2585 12.8933ZM1.85714 18.6667H18.1429V17.3987C18.1429 16.132 17.2254 15.032 15.9619 14.7853L12.9939 14.2013C12.0452 14.016 11.3571 13.1907 11.3571 12.24V11.3333C11.3571 11.1547 11.4304 10.9827 11.5607 10.8573C11.6761 10.7467 11.9244 10.264 12.071 9.976C12.3234 9.484 12.5419 9.05999 12.7944 8.81733C13.2436 8.38533 13.6765 7.90933 13.7891 7.368C13.8774 6.94533 13.8163 6.82666 13.7376 6.67599L13.7337 6.66845C13.6658 6.53516 13.5652 6.33758 13.5652 6.07066C13.5652 5.50533 13.5652 4.32933 13.363 3.64799C13.3454 3.58933 13.3359 3.52933 13.3359 3.46933C13.325 2.55199 13.173 2.31599 12.9898 2.11999C12.9341 2.08533 12.6641 2.03999 12.5026 2.01333L12.4925 2.01164C12.2086 1.96406 11.8872 1.91021 11.6109 1.75999C11.0925 1.47599 10.6039 1.34933 9.98236 1.33333C8.72157 1.38133 7.05093 2.20666 6.52436 3.64133C6.38593 4.01733 6.40629 4.99333 6.4185 5.57599L6.42529 6.07066C6.42529 6.34266 6.32214 6.54266 6.25293 6.67599C6.17422 6.82666 6.11314 6.94533 6.20136 7.36666C6.31536 7.91066 6.74557 8.38533 7.19614 8.81733C7.44599 9.05616 7.66493 9.4772 7.91849 9.96483L7.92222 9.972L7.9341 9.99483C8.08575 10.2862 8.32695 10.7496 8.44064 10.8587C8.56957 10.9827 8.64286 11.1547 8.64286 11.3333V12.24C8.64286 13.1907 7.95479 14.016 7.00614 14.2L4.03943 14.784C2.77457 15.032 1.85714 16.132 1.85714 17.3987V18.6667Z" fill="white"/>
</g>
</svg>
