<svg width="34" height="34" viewBox="0 0 34 34" fill="none" xmlns="http://www.w3.org/2000/svg">
<g id="&#236;&#149;&#132;&#236;&#157;&#180;&#236;&#189;&#152; / &#237;&#154;&#140;&#236;&#155;&#144;">
<g id="Mask">
<circle cx="17" cy="17" r="17" fill="#F8F8F8"/>
<circle cx="17" cy="17" r="16.5" stroke="black" stroke-opacity="0.1"/>
</g>
<mask id="mask0_1326_1333" style="mask-type:luminance" maskUnits="userSpaceOnUse" x="0" y="0" width="34" height="34">
<circle id="Mask_2" cx="17" cy="17" r="17" fill="white"/>
</mask>
<g mask="url(#mask0_1326_1333)">
<g id="&#236;&#149;&#132;&#236;&#157;&#180;&#236;&#189;&#152; / &#237;&#154;&#140;&#236;&#155;&#144;_2">
<g id="user (5)">
<path id="Shape" d="M24.8651 25.5205L21.116 24.7613C20.7183 24.6816 20.4286 24.3245 20.4286 23.912V23.0419C20.6754 22.6952 20.9069 22.2324 21.1469 21.7488C21.3303 21.3831 21.6063 20.8319 21.7297 20.7019C22.4566 19.9825 23.2314 19.0899 23.468 17.9268C23.6823 16.8729 23.468 16.3252 23.2194 15.8919C23.2194 15.0443 23.2194 13.4929 22.928 12.3749C22.8989 11.0247 22.6537 10.262 22.0383 9.58253C21.6029 9.1076 20.9617 8.99667 20.4474 8.90827C20.2434 8.8736 19.964 8.82507 19.8663 8.77133C18.9766 8.27387 18.0731 8.02773 16.9674 8C14.7046 8.08667 11.9274 9.53747 10.9983 12.1461C10.7154 12.9383 10.7429 14.2383 10.7634 15.2835L10.7394 15.8919C10.5217 16.3252 10.3074 16.8729 10.5234 17.9251C10.76 19.0933 11.5349 19.9843 12.2583 20.7001C12.3834 20.8319 12.6629 21.3865 12.848 21.7523C13.0914 22.2341 13.3246 22.6969 13.5714 23.0436V23.912C13.5714 24.3245 13.2817 24.6816 12.8823 24.7613L9.13314 25.5205C6.73829 26.0041 5 28.1483 5 30.6183V32.2667C5 33.2217 5.76971 34 6.71429 34H27.2857C28.2303 34 29 33.2217 29 32.2667V30.6183C29 28.1483 27.2617 26.0041 24.8651 25.5205Z" fill="#C8C8C8"/>
</g>
</g>
</g>
</g>
</svg>
