<svg width="92" height="92" viewBox="0 -10 171 132" fill="none" xmlns="http://www.w3.org/2000/svg">
<rect width="132" height="132" rx="66" fill="#1D1DFF"/>
<g clip-path="url(#clip0_1288_11932)">
<g filter="url(#filter0_d_1288_11932)">
<path d="M111.99 64.5089C111.99 64.5089 111.99 64.4729 111.99 64.4569C111.974 63.6167 111.934 62.7805 111.87 61.9403C111.87 61.9323 111.87 61.9243 111.87 61.9123C111.594 58.2795 110.877 54.6507 109.72 51.0978C108.67 47.8811 107.289 44.8324 105.615 41.9837C105.615 41.9837 105.615 41.9797 105.615 41.9757C105.559 41.8797 105.499 41.7837 105.443 41.6877C105.391 41.5957 105.334 41.5076 105.282 41.4196C105.094 41.1075 104.898 40.7955 104.702 40.4914C104.662 40.4274 104.618 40.3634 104.578 40.2954C104.385 39.9993 104.193 39.7072 103.993 39.4152C103.969 39.3791 103.945 39.3431 103.921 39.3071C103.697 38.9831 103.472 38.659 103.24 38.3429C103.204 38.2949 103.172 38.2509 103.14 38.2029C102.655 37.5387 102.151 36.8866 101.63 36.2464C101.618 36.2304 101.602 36.2144 101.59 36.1984C97.5976 31.3213 92.5998 27.2804 86.8092 24.3357C86.4247 24.1436 86.0403 23.9556 85.6558 23.7716C85.6358 23.7596 85.6158 23.7515 85.5958 23.7435C85.4957 23.6955 85.3955 23.6515 85.2954 23.6035C85.1192 23.5235 84.943 23.4395 84.7668 23.3595C84.6707 23.3154 84.5746 23.2754 84.4825 23.2314C84.4064 23.1994 84.3303 23.1634 84.2542 23.1314C84.1661 23.0914 84.074 23.0554 83.9819 23.0154C83.9419 22.9994 83.8978 22.9794 83.8578 22.9634C83.7496 22.9194 83.6455 22.8713 83.5374 22.8273C83.3692 22.7593 83.201 22.6913 83.0328 22.6233C82.9287 22.5833 82.8246 22.5393 82.7245 22.4993C82.5683 22.4392 82.4121 22.3792 82.2519 22.3192C82.1318 22.2752 82.0116 22.2272 81.8955 22.1832C81.7714 22.1392 81.6512 22.0912 81.5271 22.0472C81.5071 22.0392 81.487 22.0312 81.467 22.0232C81.423 22.0071 81.3749 21.9951 81.3309 21.9791C81.2628 21.9551 81.1987 21.9311 81.1306 21.9111C80.6941 21.7591 80.2576 21.6111 79.8211 21.471C79.8131 21.471 79.8051 21.467 79.7971 21.463C70.6906 18.5704 60.9354 18.5864 51.6687 21.5991C48.5171 22.6233 45.5297 23.9676 42.7264 25.592C42.7104 25.6 42.6944 25.612 42.6784 25.62C42.4301 25.764 42.1818 25.912 41.9375 26.0601C41.9015 26.0801 41.8654 26.1041 41.8334 26.1241C41.5891 26.2721 41.3488 26.4242 41.1086 26.5762C41.0885 26.5882 41.0725 26.6002 41.0525 26.6122C40.0473 27.2524 39.0742 27.9325 38.1251 28.6487C38.0771 28.6847 38.025 28.7247 37.977 28.7607C37.7767 28.9127 37.5805 29.0688 37.3803 29.2208C37.3122 29.2728 37.2481 29.3248 37.184 29.3768C36.9918 29.5289 36.8036 29.6809 36.6154 29.8369C36.5513 29.889 36.4913 29.941 36.4272 29.993C35.7985 30.5171 35.1817 31.0572 34.5811 31.6174C34.533 31.6614 34.4889 31.7014 34.4409 31.7454C34.2807 31.8934 34.1245 32.0455 33.9643 32.1975C33.8762 32.2855 33.7841 32.3695 33.696 32.4576C33.5519 32.6016 33.4037 32.7456 33.2595 32.8897C33.1594 32.9897 33.0633 33.0897 32.9672 33.1897C32.831 33.3298 32.6909 33.4738 32.5587 33.6138C32.4546 33.7218 32.3545 33.8339 32.2504 33.9419C32.1222 34.0819 31.9901 34.218 31.8659 34.358C31.7458 34.49 31.6297 34.622 31.5135 34.7541C31.3213 34.9701 31.1331 35.1862 30.9449 35.4062C30.8167 35.5583 30.6886 35.7063 30.5604 35.8583C30.4563 35.9824 30.3562 36.1104 30.2521 36.2344C30.1359 36.3785 30.0158 36.5225 29.8997 36.6705C29.7996 36.7985 29.6994 36.9226 29.5993 37.0506C29.4832 37.2026 29.363 37.3547 29.2469 37.5067C29.1548 37.6307 29.0587 37.7548 28.9666 37.8788C28.8424 38.0468 28.7183 38.2149 28.5982 38.3869C28.5181 38.4989 28.438 38.611 28.3579 38.723C28.1777 38.9751 28.0015 39.2311 27.8293 39.4872C27.7892 39.5472 27.7452 39.6112 27.7051 39.6712C27.5329 39.9273 27.3647 40.1833 27.2006 40.4434C27.1325 40.5474 27.0684 40.6514 27.0043 40.7555C26.8802 40.9515 26.7601 41.1476 26.6399 41.3436C26.5678 41.4596 26.4998 41.5756 26.4317 41.6917C26.3155 41.8837 26.2034 42.0798 26.0913 42.2718C26.0232 42.3878 25.9591 42.5039 25.8911 42.6159C25.7709 42.8239 25.6548 43.036 25.5386 43.248C25.4826 43.3481 25.4265 43.4481 25.3745 43.5481C25.2063 43.8602 25.0421 44.1722 24.8779 44.4923C24.7097 44.8284 24.5415 45.1645 24.3813 45.5005C24.3212 45.6286 24.2652 45.7526 24.2051 45.8806C24.105 46.0927 24.0049 46.3007 23.9128 46.5128C23.8407 46.6728 23.7726 46.8369 23.7005 47.0009C23.6244 47.1769 23.5444 47.353 23.4683 47.533C23.3922 47.7171 23.3161 47.9011 23.244 48.0851C23.1799 48.2412 23.1159 48.4012 23.0518 48.5573C22.9717 48.7573 22.8956 48.9613 22.8195 49.1614C22.7675 49.3014 22.7114 49.4415 22.6593 49.5855C22.5792 49.8015 22.5032 50.0176 22.4271 50.2336C22.383 50.3617 22.339 50.4897 22.2949 50.6137C22.2148 50.8458 22.1427 51.0778 22.0667 51.3099C22.0306 51.4219 21.9946 51.5339 21.9585 51.65C21.8824 51.894 21.8064 52.1421 21.7343 52.3861C21.7062 52.4862 21.6742 52.5862 21.6462 52.6862C21.5701 52.9463 21.502 53.2063 21.4299 53.4664C21.4059 53.5544 21.3819 53.6384 21.3618 53.7264C21.2898 53.9985 21.2217 54.2706 21.1536 54.5466C21.1336 54.6226 21.1176 54.6947 21.0975 54.7707C21.0295 55.0547 20.9654 55.3428 20.9013 55.6269C20.8893 55.6909 20.8733 55.7509 20.8613 55.8109C20.7972 56.111 20.7371 56.4071 20.6811 56.7071C20.673 56.7551 20.661 56.8072 20.653 56.8552C20.593 57.1672 20.5369 57.4753 20.4848 57.7874C20.4808 57.8234 20.4728 57.8594 20.4648 57.8994C20.4127 58.2235 20.3607 58.5435 20.3166 58.8676C20.3166 58.8916 20.3086 58.9156 20.3046 58.9396C20.2566 59.2757 20.2125 59.6118 20.1725 59.9479C20.1725 59.9599 20.1725 59.9719 20.1685 59.9839C20.1284 60.332 20.0924 60.68 20.0563 61.0281C20.0563 61.0561 20.0523 61.0841 20.0483 61.1121C20.0483 61.1121 20.0483 61.1161 20.0483 61.1201C20.0123 61.4922 19.9843 61.8643 19.9602 62.2364C19.9602 62.2804 19.9562 62.3244 19.9522 62.3684C19.9282 62.7325 19.9082 63.0926 19.8962 63.4527C19.8962 63.5007 19.8921 63.5487 19.8921 63.5967C19.8761 63.9648 19.8681 64.3289 19.8641 64.697C19.8641 64.737 19.8641 64.777 19.8641 64.821C19.8601 65.2051 19.8641 65.5932 19.8641 65.9813V66.0333C19.8681 66.2893 19.8761 66.5414 19.8841 66.7934C19.8841 66.8775 19.8881 66.9615 19.8921 67.0495C19.9002 67.2816 19.9122 67.5136 19.9242 67.7457C19.9282 67.8537 19.9362 67.9657 19.9442 68.0737C19.9562 68.2938 19.9722 68.5138 19.9883 68.7339C19.9963 68.8499 20.0083 68.9659 20.0163 69.086C20.0363 69.306 20.0523 69.5261 20.0724 69.7461C20.0724 69.7661 20.0764 69.7861 20.0764 69.8021C20.1124 70.1742 20.1565 70.5503 20.2005 70.9264C20.2005 70.9264 20.2005 70.9264 20.2005 70.9304C20.2125 71.0184 20.2245 71.1064 20.2365 71.1945C20.2365 71.1945 20.2365 71.1945 20.2365 71.1985C20.2526 71.3025 20.2646 71.4065 20.2766 71.5105C20.3046 71.7066 20.3327 71.9066 20.3607 72.1027C20.3807 72.2227 20.3967 72.3427 20.4168 72.4628C20.4208 72.4988 20.4288 72.5268 20.4328 72.5588C20.4728 72.7988 20.5129 73.0389 20.5529 73.2789C20.5769 73.415 20.601 73.555 20.629 73.691C20.6771 73.9431 20.7251 74.1992 20.7772 74.4512C20.7852 74.4912 20.7932 74.5312 20.8012 74.5672C20.8252 74.6753 20.8492 74.7873 20.8693 74.8953C20.9093 75.0834 20.9494 75.2754 20.9934 75.4634C21.0134 75.5475 21.0335 75.6315 21.0495 75.7155C21.0775 75.8395 21.1055 75.9636 21.1376 76.0876C21.1696 76.2196 21.2017 76.3476 21.2337 76.4797V76.4837C21.2657 76.6117 21.3018 76.7437 21.3338 76.8718C21.3658 76.9998 21.3979 77.1278 21.4339 77.2559C21.4539 77.3359 21.478 77.4199 21.502 77.4999C21.5541 77.692 21.6101 77.884 21.6662 78.076C21.6982 78.1921 21.7303 78.3081 21.7663 78.4241C21.7783 78.4641 21.7903 78.5001 21.8023 78.5401C21.9065 78.8882 22.0146 79.2403 22.1307 79.5884C22.2789 80.0405 22.4311 80.4846 22.5913 80.9287C22.6713 81.1488 22.7554 81.3608 22.8355 81.5768C22.9196 81.7969 22.9997 82.0129 23.0838 82.233C23.1919 82.5051 23.3041 82.7691 23.4122 83.0372C23.4803 83.1972 23.5444 83.3573 23.6084 83.5133C23.7286 83.7934 23.8527 84.0734 23.9809 84.3495C24.0249 84.4495 24.069 84.5535 24.117 84.6536C24.4654 85.4097 24.8338 86.1539 25.2183 86.8861C25.2503 86.9461 25.2824 87.0101 25.3184 87.0701C25.5306 87.4662 25.7509 87.8623 25.9751 88.2544C26.0312 88.3544 26.0873 88.4504 26.1433 88.5464C26.3235 88.8545 26.5078 89.1626 26.696 89.4667C26.7921 89.6227 26.8882 89.7827 26.9883 89.9388C27.1044 90.1228 27.2206 90.3069 27.3407 90.4909C27.4889 90.7189 27.6371 90.943 27.7892 91.1671C27.9134 91.3511 28.0415 91.5351 28.1697 91.7192C28.3178 91.9312 28.466 92.1433 28.6182 92.3513C28.7223 92.4954 28.8264 92.6394 28.9306 92.7834C29.1308 93.0515 29.331 93.3195 29.5352 93.5796C29.6193 93.6876 29.7074 93.7997 29.7915 93.9077C30.0238 94.2038 30.2601 94.4958 30.5004 94.7839C30.5804 94.8759 30.6565 94.9719 30.7366 95.0639C30.9889 95.364 31.2452 95.6601 31.5095 95.9562C31.5095 95.9562 36.7916 103.126 48.0325 107.735C48.0566 107.743 48.0766 107.755 48.1006 107.763C48.1006 107.763 48.1086 107.767 48.1126 107.767C48.5091 107.935 48.9095 108.095 49.314 108.251C49.326 108.255 49.338 108.263 49.3501 108.267C49.7425 108.419 50.139 108.567 50.5354 108.707C50.5554 108.715 50.5755 108.723 50.5955 108.727C50.5955 108.727 50.5995 108.727 50.6035 108.727C50.6035 108.727 50.6075 108.727 50.6115 108.727C50.9959 108.863 51.3804 108.995 51.7688 109.119C51.8049 109.131 51.8369 109.139 51.873 109.151C52.2494 109.271 52.6258 109.391 53.0063 109.499C53.0543 109.515 53.1064 109.527 53.1544 109.539C53.5188 109.647 53.8873 109.747 54.2517 109.843C54.3158 109.859 54.3798 109.875 54.4479 109.895C54.8003 109.987 55.1527 110.075 55.5091 110.155C55.5892 110.175 55.6693 110.191 55.7494 110.211C55.7494 110.211 55.7534 110.211 55.7574 110.211C55.7574 110.211 55.7614 110.211 55.7654 110.211C56.1018 110.287 56.4382 110.363 56.7746 110.431C56.8787 110.451 56.9788 110.471 57.083 110.492C57.4033 110.556 57.7277 110.616 58.0481 110.672C58.1722 110.692 58.2963 110.712 58.4245 110.736C58.7248 110.784 59.0252 110.836 59.3295 110.88C59.3295 110.88 59.3295 110.88 59.3335 110.88C59.3335 110.88 59.3335 110.88 59.3375 110.88C59.4817 110.9 59.6219 110.916 59.766 110.936C59.77 110.936 59.7781 110.936 59.7821 110.936C59.7861 110.936 59.7941 110.936 59.7981 110.936C60.0744 110.972 60.3507 111.012 60.627 111.044C60.8032 111.064 60.9794 111.08 61.1556 111.1C61.4119 111.128 61.6682 111.156 61.9245 111.176C66.1574 111.628 69.1849 111.504 71.3233 111.02C74.2988 110.66 77.2582 110.011 80.1735 109.063C80.5219 108.947 80.8703 108.831 81.2147 108.711C81.3309 108.671 81.447 108.627 81.5631 108.587C81.7874 108.503 82.0156 108.423 82.2399 108.339C82.3761 108.287 82.5122 108.231 82.6484 108.179C82.8486 108.103 83.0488 108.023 83.2491 107.943C83.3972 107.883 83.5414 107.823 83.6856 107.763C83.8738 107.683 84.062 107.607 84.2462 107.527C84.3984 107.463 84.5466 107.395 84.6947 107.331C84.6947 107.331 84.6947 107.331 84.6987 107.331C84.6987 107.331 84.6987 107.331 84.7027 107.331C84.8789 107.251 85.0551 107.175 85.2313 107.091C85.3835 107.023 85.5357 106.951 85.6879 106.879C85.6879 106.879 85.6879 106.879 85.6919 106.879C85.6919 106.879 85.6919 106.879 85.6959 106.879C85.8681 106.799 86.0363 106.719 86.2045 106.635C86.3566 106.559 86.5088 106.483 86.661 106.407C86.8292 106.323 86.9934 106.239 87.1616 106.15C87.3137 106.07 87.4699 105.99 87.6221 105.91C87.7823 105.826 87.9425 105.738 88.0986 105.65C88.2548 105.566 88.411 105.478 88.5632 105.39C88.7194 105.302 88.8755 105.214 89.0277 105.126C89.1839 105.038 89.3401 104.946 89.4963 104.854C89.6444 104.766 89.7926 104.674 89.9448 104.582C90.101 104.486 90.2571 104.39 90.4133 104.29C90.5575 104.202 90.6976 104.11 90.8378 104.022C90.998 103.918 91.1582 103.818 91.3143 103.714C91.4465 103.626 91.5787 103.538 91.7108 103.446C91.875 103.334 92.0392 103.226 92.2034 103.114C92.3195 103.034 92.4316 102.954 92.5438 102.874C92.72 102.75 92.9002 102.626 93.0724 102.494C93.1084 102.47 93.1404 102.442 93.1765 102.418C93.6851 102.046 94.1856 101.661 94.6782 101.269C94.6902 101.261 94.7022 101.249 94.7143 101.241C94.9105 101.081 95.1027 100.921 95.2989 100.761C95.379 100.697 95.4551 100.633 95.5352 100.569C95.7154 100.417 95.8916 100.261 96.0718 100.109C96.1599 100.033 96.252 99.9571 96.3401 99.8771C96.5123 99.725 96.6845 99.569 96.8527 99.4169C96.9448 99.3329 97.0329 99.2529 97.125 99.1689C97.2932 99.0129 97.4574 98.8568 97.6256 98.7008C97.7137 98.6168 97.8058 98.5287 97.8939 98.4447C98.0581 98.2847 98.2223 98.1246 98.3825 97.9646C98.4706 97.8766 98.5587 97.7886 98.6428 97.7006C98.803 97.5365 98.9632 97.3725 99.1233 97.2084C99.2074 97.1204 99.2915 97.0324 99.3756 96.9444C99.5358 96.7763 99.692 96.6043 99.8522 96.4323C99.9323 96.3442 100.008 96.2602 100.088 96.1722C100.249 95.9962 100.405 95.8201 100.561 95.6401C100.633 95.5561 100.705 95.472 100.781 95.384C100.941 95.2 101.098 95.0159 101.254 94.8279C101.318 94.7479 101.386 94.6679 101.45 94.5918C101.61 94.3958 101.77 94.1998 101.931 93.9997C101.983 93.9317 102.039 93.8637 102.091 93.7957C102.259 93.5836 102.423 93.3716 102.583 93.1555C102.619 93.1075 102.651 93.0595 102.687 93.0115C103.693 91.6712 104.63 90.2748 105.491 88.8185C105.491 88.8145 105.499 88.8065 105.503 88.8025C105.911 88.1104 106.304 87.4102 106.68 86.694C107 86.2099 107.261 85.6898 107.465 85.1377C108.154 83.6933 108.766 82.221 109.295 80.7327C109.295 80.7327 109.295 80.7327 109.295 80.7287C109.435 80.3366 109.571 79.9405 109.7 79.5444C109.708 79.5244 109.712 79.5044 109.72 79.4884C109.848 79.0923 109.976 78.6922 110.092 78.2921C110.292 77.6199 110.472 76.9478 110.641 76.2676C110.649 76.2396 110.653 76.2116 110.661 76.1876C110.725 75.9195 110.789 75.6475 110.849 75.3794C110.861 75.3274 110.873 75.2754 110.885 75.2234C110.941 74.9633 110.997 74.6993 111.053 74.4352C111.065 74.3832 111.073 74.3272 111.085 74.2752C111.137 74.0071 111.189 73.739 111.237 73.475C111.241 73.443 111.249 73.415 111.253 73.383C111.253 73.367 111.257 73.351 111.261 73.339C111.261 73.327 111.265 73.3109 111.269 73.2989C111.341 72.8989 111.405 72.4988 111.466 72.0987C111.466 72.0787 111.47 72.0627 111.474 72.0427C111.578 71.3425 111.666 70.6423 111.738 69.9382C111.746 69.8502 111.754 69.7661 111.762 69.6821C111.782 69.4621 111.802 69.238 111.818 69.018C111.826 68.9059 111.834 68.7899 111.846 68.6779C111.854 68.5779 111.862 68.4738 111.87 68.3738C111.87 68.3738 111.87 68.3778 111.87 68.3818C111.87 68.3738 111.87 68.3658 111.87 68.3578C111.87 68.3098 111.874 68.2658 111.878 68.2178C111.93 67.3976 111.958 66.5734 111.966 65.7492V65.7132C111.966 65.3091 111.966 64.901 111.958 64.4969L111.99 64.5089ZM95.8315 73.9871C94.514 73.2789 93.3807 72.2747 92.5077 71.0704C92.2194 70.6703 91.9591 70.2502 91.7348 69.8061C91.7308 69.7981 91.7268 69.7901 91.7228 69.7821C91.6708 69.6821 91.6227 69.5861 91.5787 69.4861C91.5706 69.4661 91.5626 69.4501 91.5546 69.4301C91.5146 69.338 91.4705 69.246 91.4345 69.154C91.4225 69.134 91.4145 69.11 91.4064 69.09C91.3704 68.998 91.3304 68.9019 91.2983 68.8099C91.2903 68.7899 91.2823 68.7699 91.2743 68.7499C91.2383 68.6459 91.2022 68.5459 91.1662 68.4378C91.1622 68.4258 91.1582 68.4138 91.1542 68.4058C91.0781 68.1698 91.01 67.9337 90.9499 67.6897C90.9459 67.6696 90.9379 67.6496 90.9339 67.6296C90.9099 67.5336 90.8899 67.4376 90.8698 67.3416C90.8618 67.3056 90.8538 67.2656 90.8498 67.2295C90.8338 67.1455 90.8178 67.0655 90.8058 66.9815C90.7978 66.9375 90.7937 66.8935 90.7857 66.8535C90.7737 66.7774 90.7617 66.6974 90.7537 66.6214C90.7497 66.5734 90.7417 66.5294 90.7377 66.4854C90.7297 66.4054 90.7217 66.3293 90.7137 66.2493C90.7096 66.2053 90.7056 66.1573 90.7016 66.1133C90.6936 66.0293 90.6896 65.9453 90.6856 65.8612C90.6856 65.8212 90.6816 65.7812 90.6776 65.7412C90.6736 65.6172 90.6696 65.4931 90.6696 65.3651C90.6696 65.0811 90.6656 64.797 90.6536 64.5169C90.6496 64.4089 90.6416 64.3009 90.6376 64.1928C90.6296 64.0208 90.6216 63.8528 90.6095 63.6807C90.6015 63.5407 90.5895 63.4047 90.5775 63.2686C90.5655 63.1286 90.5535 62.9926 90.5415 62.8525C90.5254 62.7005 90.5054 62.5445 90.4894 62.3924C90.4734 62.2764 90.4614 62.1564 90.4453 62.0404C90.4213 61.8763 90.3973 61.7123 90.3733 61.5482C90.3572 61.4442 90.3412 61.3402 90.3212 61.2362C90.2932 61.0641 90.2611 60.8921 90.2291 60.7201C90.2131 60.628 90.1931 60.532 90.173 60.44C90.137 60.2639 90.101 60.0879 90.0569 59.9119C90.0369 59.8278 90.0169 59.7398 89.9968 59.6518C89.9528 59.4758 89.9087 59.2957 89.8647 59.1237C89.8527 59.0837 89.8447 59.0437 89.8326 59.0037C88.5392 54.1585 85.808 49.8936 82.1238 46.6968C81.9556 46.5488 81.7834 46.4048 81.6072 46.2647C81.5591 46.2247 81.5111 46.1847 81.463 46.1487C81.3429 46.0527 81.2227 45.9567 81.1026 45.8646C81.0786 45.8446 81.0545 45.8286 81.0305 45.8086C80.9945 45.7806 80.9584 45.7526 80.9224 45.7246C80.7462 45.5886 80.562 45.4525 80.3818 45.3245C80.3497 45.3005 80.3137 45.2765 80.2816 45.2525C80.1255 45.1405 79.9693 45.0324 79.8131 44.9244C79.7691 44.8924 79.721 44.8604 79.677 44.8324C79.2965 44.5763 78.9041 44.3283 78.5076 44.0962C78.4716 44.0762 78.4355 44.0522 78.3995 44.0322C78.3915 44.0322 78.3835 44.0242 78.3795 44.0202C78.3594 44.0082 78.3394 43.9962 78.3194 43.9842C78.1672 43.8962 78.019 43.8122 77.8629 43.7281C77.8388 43.7121 77.8108 43.7001 77.7868 43.6841C77.5745 43.5681 77.3623 43.4561 77.146 43.3441C77.146 43.3441 77.138 43.3441 77.134 43.3401C76.9258 43.232 76.7175 43.132 76.5053 43.032C76.4773 43.02 76.4492 43.004 76.4212 42.992C75.9807 42.7839 75.5362 42.5919 75.0797 42.4118C75.0676 42.4078 75.0516 42.3998 75.0396 42.3958C74.8154 42.3078 74.5911 42.2198 74.3628 42.1398C74.3548 42.1398 74.3468 42.1358 74.3428 42.1318C73.8703 41.9597 73.3937 41.8037 72.9132 41.6637C72.9012 41.6597 72.8891 41.6557 72.8731 41.6517C72.3886 41.5076 71.896 41.3796 71.3954 41.2676C69.6334 40.8675 67.8033 40.6554 65.9211 40.6554C57.4994 40.6554 50.0509 44.8804 45.5777 51.3219C45.5697 51.3339 45.5617 51.3419 45.5577 51.3539C45.2533 51.794 44.965 52.2421 44.6887 52.6982C44.5525 52.9223 44.4244 53.1463 44.2962 53.3744C44.2882 53.3904 44.2802 53.4024 44.2722 53.4184C44.0159 53.8785 43.7756 54.3466 43.5474 54.8267C43.5394 54.8467 43.5273 54.8667 43.5193 54.8867C43.4152 55.1068 43.3151 55.3308 43.215 55.5549C43.207 55.5749 43.199 55.5949 43.191 55.6149C42.9827 56.095 42.7945 56.5791 42.6183 57.0712C42.6063 57.1072 42.5903 57.1432 42.5783 57.1792C42.5022 57.3993 42.4261 57.6233 42.354 57.8474C42.346 57.8714 42.338 57.8954 42.33 57.9194C42.2499 58.1715 42.1738 58.4275 42.1017 58.6836C42.1017 58.6956 42.0977 58.7036 42.0937 58.7156C42.0296 58.9516 41.9656 59.1837 41.9095 59.4238C41.8975 59.4718 41.8855 59.5198 41.8734 59.5718C41.8174 59.7998 41.7653 60.0319 41.7173 60.2639C41.7133 60.284 41.7093 60.304 41.7053 60.324C41.6532 60.58 41.6011 60.8401 41.5571 61.1001C41.5491 61.1361 41.5451 61.1722 41.5371 61.2122C41.501 61.4322 41.465 61.6523 41.4329 61.8723C41.4249 61.9283 41.4169 61.9843 41.4089 62.0404C41.3769 62.2924 41.3448 62.5485 41.3168 62.8045C41.2728 63.2246 41.2407 63.6447 41.2167 64.0688C41.2167 64.0688 41.2167 64.0768 41.2167 64.0808C41.2047 64.2769 41.2007 64.4689 41.1927 64.669C41.1927 64.689 41.1927 64.709 41.1927 64.729C41.1887 64.945 41.1847 65.1571 41.1847 65.3731C41.1847 65.6652 41.1927 65.9533 41.2007 66.2413C41.2007 66.3293 41.2087 66.4214 41.2127 66.5094C41.2207 66.7174 41.2327 66.9215 41.2487 67.1255C41.2567 67.2175 41.2607 67.3136 41.2687 67.4056C41.2928 67.6777 41.3168 67.9457 41.3488 68.2178C41.3609 68.3018 41.3729 68.3858 41.3809 68.4698C41.4049 68.6619 41.4329 68.8499 41.461 69.042C41.481 69.166 41.501 69.29 41.521 69.414C41.5451 69.5661 41.5731 69.7181 41.6011 69.8702C41.6252 69.9942 41.6452 70.1222 41.6732 70.2462C41.7213 70.4863 41.7733 70.7264 41.8294 70.9664C41.8294 70.9664 41.8374 70.9984 41.8414 71.0104C41.9135 71.3305 41.9976 71.6466 42.0817 71.9586C42.1097 72.0547 42.1377 72.1507 42.1658 72.2467C42.1658 72.2467 42.1658 72.2467 42.1658 72.2507C42.1658 72.2507 42.1658 72.2507 42.1658 72.2547C42.2299 72.4708 42.2899 72.6868 42.358 72.8989C42.4021 73.0389 42.4501 73.1789 42.4982 73.3149V73.319V73.3229C42.5542 73.487 42.6103 73.655 42.6704 73.8191C42.6704 73.8191 42.6704 73.8191 42.6704 73.8231C42.7264 73.9751 42.7825 74.1231 42.8426 74.2712C42.9026 74.4232 42.9587 74.5752 43.0228 74.7233C43.0868 74.8793 43.1549 75.0313 43.219 75.1874C43.2831 75.3314 43.3431 75.4714 43.4072 75.6115C43.4793 75.7715 43.5514 75.9275 43.6275 76.0796C43.6915 76.2156 43.7596 76.3476 43.8237 76.4797C43.9038 76.6397 43.9839 76.7957 44.068 76.9518C44.1361 77.0758 44.2041 77.1998 44.2722 77.3239C44.3603 77.4839 44.4484 77.6399 44.5405 77.796C44.6046 77.908 44.6727 78.016 44.7407 78.1281C44.8409 78.2921 44.937 78.4561 45.0411 78.6162C45.0731 78.6682 45.1092 78.7202 45.1412 78.7682C47.9765 83.1292 52.1493 86.546 57.0749 88.4304C57.0749 88.4304 57.0749 88.4304 57.0789 88.4304C57.0789 88.4304 57.0789 88.4304 57.0749 88.4304C57.1751 88.4664 57.2712 88.5024 57.3713 88.5384C57.4794 88.5785 57.5875 88.6145 57.6917 88.6545C57.9119 88.7345 58.1362 88.8065 58.3604 88.8785C58.4485 88.9065 58.5326 88.9345 58.6207 88.9625C58.869 89.0386 59.1213 89.1106 59.3696 89.1786C59.3696 89.1786 59.3736 89.1786 59.3776 89.1786C59.3776 89.1786 59.3816 89.1786 59.3856 89.1786C59.4697 89.2026 59.5538 89.2266 59.6379 89.2466C59.8982 89.3146 60.1625 89.3786 60.4228 89.4387C60.5029 89.4547 60.583 89.4747 60.6671 89.4907C60.9354 89.5467 61.2077 89.6027 61.484 89.6507H61.488H61.492C61.5641 89.6627 61.6322 89.6747 61.7043 89.6867C61.9886 89.7347 62.2769 89.7787 62.5613 89.8187H62.5653C62.5653 89.8187 62.5653 89.8187 62.5693 89.8187C62.6293 89.8267 62.6894 89.8347 62.7495 89.8428C63.0498 89.8828 63.3542 89.9148 63.6625 89.9428C63.7106 89.9428 63.7546 89.9508 63.8027 89.9548C64.1231 89.9828 64.4474 90.0028 64.7678 90.0188C64.7958 90.0188 64.8239 90.0188 64.8479 90.0188C65.1923 90.0348 65.5367 90.0388 65.8811 90.0388C66.1294 90.0388 66.3736 90.0348 66.6179 90.0268C66.6339 90.0268 66.65 90.0268 66.67 90.0268C73.0734 89.8267 78.872 87.1821 83.161 82.9972C84.4344 84.2415 85.8441 85.3457 87.3618 86.2939C87.3938 86.3139 87.4299 86.3339 87.4619 86.3579C87.7502 86.534 88.0426 86.71 88.3389 86.8781C84.8389 90.5269 80.4699 93.2795 75.5242 94.8919C75.2599 94.9759 74.9956 95.06 74.7313 95.136C74.6472 95.16 74.5591 95.184 74.471 95.208C74.2908 95.26 74.1105 95.312 73.9343 95.36C73.8342 95.388 73.7301 95.412 73.626 95.44C73.4618 95.484 73.2976 95.5241 73.1334 95.5641C73.0253 95.5921 72.9172 95.6161 72.809 95.6401C72.6489 95.6761 72.4887 95.7121 72.3245 95.7481C72.2164 95.7721 72.1082 95.7921 72.0001 95.8161C71.8399 95.8481 71.6757 95.8801 71.5116 95.9121C71.4074 95.9322 71.2993 95.9522 71.1952 95.9682C71.027 96.0002 70.8588 96.0242 70.6866 96.0522C70.5865 96.0682 70.4864 96.0842 70.3863 96.1002C70.2381 96.1202 70.0899 96.1402 69.9377 96.1602C69.8977 96.1642 69.8577 96.1722 69.8176 96.1762C69.7816 96.1802 69.7455 96.1882 69.7095 96.1922C69.6654 96.1962 69.6214 96.2042 69.5773 96.2082C69.5293 96.2122 69.4812 96.2202 69.4332 96.2242C69.0007 96.2762 68.5682 96.3162 68.1317 96.3482C68.0716 96.3522 68.0115 96.3602 67.9475 96.3642C67.8834 96.3682 67.8153 96.3722 67.7512 96.3763C67.547 96.3883 67.3428 96.4003 67.1385 96.4083C67.0504 96.4123 66.9583 96.4123 66.8662 96.4163C66.7981 96.4163 66.7301 96.4203 66.658 96.4203C66.5458 96.4203 66.4337 96.4283 66.3216 96.4283C66.2255 96.4283 66.1254 96.4283 66.0292 96.4283C65.9492 96.4283 65.8691 96.4283 65.789 96.4283H65.5046C65.4766 96.4283 65.4486 96.4283 65.4205 96.4283C65.3485 96.4283 65.2764 96.4283 65.2083 96.4283C65.0361 96.4243 64.8599 96.4203 64.6877 96.4123C64.5876 96.4083 64.4915 96.4043 64.3954 96.4003C64.2712 96.3963 64.1471 96.3843 64.0269 96.3802C63.9709 96.3802 63.9148 96.3763 63.8587 96.3682C63.7666 96.3643 63.6785 96.3562 63.5864 96.3522C63.4703 96.3442 63.3582 96.3322 63.246 96.3202C63.1619 96.3122 63.0819 96.3082 63.0018 96.3002C62.9297 96.2922 62.8576 96.2882 62.7815 96.2802C62.5172 96.2522 62.2489 96.2242 61.9846 96.1922C61.452 96.1242 60.9234 96.0442 60.3948 95.9482C60.3707 95.9442 60.3467 95.9361 60.3227 95.9322C60.0824 95.8881 59.8421 95.8441 59.6059 95.7921C59.5778 95.7881 59.5538 95.7801 59.5258 95.7761C59.2895 95.7241 59.0532 95.6721 58.8129 95.6161C58.7929 95.6121 58.7689 95.6041 58.7489 95.6001C58.5046 95.5441 58.2643 95.48 58.02 95.42C58.004 95.416 57.992 95.412 57.976 95.408C57.7237 95.34 57.4754 95.272 57.2271 95.2C57.2191 95.2 57.2151 95.2 57.2071 95.196C56.9508 95.12 56.6945 95.0399 56.4382 94.9599C56.1779 94.8759 55.9216 94.7879 55.6613 94.6999C55.4531 94.6279 55.2408 94.5478 55.0326 94.4678C54.9165 94.4238 54.8003 94.3838 54.6882 94.3398C54.4119 94.2318 54.1356 94.1197 53.8632 94.0037C53.8192 93.9837 53.7711 93.9677 53.7271 93.9477C53.7071 93.9397 53.691 93.9317 53.671 93.9237C53.663 93.9237 53.655 93.9157 53.647 93.9117C53.3827 93.7957 53.1144 93.6796 52.8501 93.5556C52.782 93.5236 52.7179 93.4956 52.6539 93.4636C52.3615 93.3275 52.0692 93.1875 51.7808 93.0395C51.5406 92.9195 51.3083 92.7914 51.076 92.6674C50.9639 92.6074 50.8558 92.5434 50.7437 92.4834C50.6916 92.4513 50.6355 92.4233 50.5835 92.3913C50.5314 92.3593 50.4753 92.3313 50.4193 92.2993C50.2711 92.2153 50.1229 92.1273 49.9788 92.0433C49.9427 92.0192 49.9027 91.9992 49.8666 91.9752C49.8586 91.9712 49.8506 91.9632 49.8426 91.9592C49.6744 91.8552 49.5062 91.7552 49.338 91.6512C49.0777 91.4871 48.8214 91.3231 48.5692 91.151C48.5491 91.139 48.5291 91.123 48.5131 91.111C48.2808 90.955 48.0486 90.795 47.8203 90.6349C47.7883 90.6109 47.7562 90.5869 47.7242 90.5629C47.5119 90.4109 47.2997 90.2548 47.0915 90.0988C47.0514 90.0668 47.0114 90.0348 46.9713 90.0068C46.7711 89.8548 46.5749 89.6987 46.3786 89.5427C46.3346 89.5067 46.2905 89.4707 46.2465 89.4347C46.0583 89.2786 45.87 89.1266 45.6858 88.9665C45.6378 88.9265 45.5937 88.8865 45.5457 88.8465C45.3655 88.6905 45.1893 88.5344 45.0131 88.3744C44.965 88.3344 44.921 88.2904 44.8729 88.2464C44.7007 88.0863 44.5285 87.9263 44.3603 87.7663C44.3123 87.7223 44.2682 87.6743 44.2201 87.6302C44.052 87.4662 43.8878 87.3022 43.7236 87.1381C43.6795 87.0901 43.6315 87.0461 43.5874 86.9981C43.4232 86.8301 43.263 86.662 43.1069 86.49C43.0628 86.446 43.0228 86.398 42.9787 86.354C42.8185 86.1819 42.6624 86.0059 42.5062 85.8298C42.4661 85.7858 42.4261 85.7418 42.39 85.6938C42.2339 85.5137 42.0817 85.3297 41.9295 85.1497C41.8935 85.1057 41.8574 85.0617 41.8214 85.0216C41.6692 84.8336 41.517 84.6416 41.3689 84.4535C41.3368 84.4135 41.3088 84.3735 41.2768 84.3375C41.1246 84.1374 40.9764 83.9414 40.8282 83.7373C40.8042 83.7013 40.7762 83.6693 40.7522 83.6333C40.6 83.4253 40.4518 83.2132 40.3036 83.0012C40.2836 82.9732 40.2676 82.9492 40.2476 82.9212C40.0954 82.6971 39.9432 82.4731 39.7951 82.245C39.783 82.229 39.775 82.213 39.763 82.193C39.6068 81.9489 39.4507 81.7049 39.3025 81.4568C39.1183 81.1567 38.9421 80.8527 38.7699 80.5446C38.7138 80.4446 38.6617 80.3446 38.6057 80.2445C38.5336 80.1085 38.4615 79.9725 38.3894 79.8405C38.3414 79.7484 38.2893 79.6564 38.2453 79.5644C38.2252 79.5244 38.2052 79.4844 38.1852 79.4444C38.1492 79.3723 38.1131 79.2963 38.0731 79.2243C37.9569 78.9963 37.8488 78.7682 37.7407 78.5361C37.6926 78.4321 37.6446 78.3281 37.5965 78.2241C37.4684 77.936 37.3402 77.6479 37.2161 77.3559C37.2081 77.3399 37.2001 77.3199 37.1921 77.3039C37.1921 77.2999 37.1921 77.2959 37.1881 77.2919C37.168 77.2439 37.148 77.1958 37.128 77.1438C37.0519 76.9598 36.9838 76.7757 36.9117 76.5877C36.8597 76.4557 36.8036 76.3236 36.7556 76.1876C36.7516 76.1716 36.7435 76.1556 36.7355 76.1396C36.7195 76.0996 36.7075 76.0596 36.6915 76.0196C36.5994 75.7675 36.5113 75.5154 36.4272 75.2594C36.4072 75.2074 36.3871 75.1514 36.3711 75.0994C36.3711 75.0874 36.3631 75.0754 36.3591 75.0634C36.3351 74.9913 36.311 74.9193 36.291 74.8473C36.1989 74.5632 36.1108 74.2792 36.0307 73.9951C36.0067 73.9191 35.9867 73.8391 35.9626 73.7631C35.8785 73.471 35.8025 73.1749 35.7304 72.8829C35.7224 72.8468 35.7104 72.8108 35.7023 72.7708C35.6943 72.7468 35.6903 72.7188 35.6823 72.6908C35.6823 72.6788 35.6783 72.6668 35.6743 72.6508C35.4941 71.9026 35.3379 71.1504 35.2098 70.3903C35.2098 70.3743 35.2058 70.3623 35.2018 70.3463C35.2018 70.3463 35.2018 70.3423 35.2018 70.3383C35.1817 70.2142 35.1657 70.0902 35.1457 69.9662C35.1097 69.7261 35.0696 69.4861 35.0416 69.246C35.0416 69.222 35.0376 69.198 35.0336 69.174C35.0336 69.162 35.0336 69.154 35.0296 69.146C34.9815 68.7699 34.9415 68.3898 34.9094 68.0097C34.9094 68.0097 34.9094 68.0084 34.9094 68.0057C34.8774 67.6496 34.8534 67.2936 34.8373 66.9335C34.8333 66.8255 34.8253 66.7174 34.8213 66.6094C34.8093 66.3453 34.8013 66.0813 34.7973 65.8172C34.7973 65.7092 34.7933 65.6012 34.7933 65.4891C34.7933 65.1331 34.7933 64.773 34.8013 64.4169C34.8013 64.4169 34.8013 64.4129 34.8013 64.4089C34.8093 64.1768 34.8213 63.9528 34.8333 63.7247C34.8414 63.5527 34.8454 63.3767 34.8574 63.2046C34.8734 62.9526 34.8934 62.7005 34.9174 62.4445C34.9174 62.4445 34.9174 62.4364 34.9174 62.4324C34.9855 61.6803 35.0816 60.9321 35.2098 60.1839C35.2098 60.1719 35.2098 60.1599 35.2138 60.1479C35.2498 59.9279 35.2899 59.7078 35.3339 59.4878C35.3459 59.4238 35.3579 59.3597 35.37 59.2997C35.41 59.0917 35.4541 58.8796 35.4981 58.6716C35.5101 58.6156 35.5221 58.5596 35.5382 58.5035C35.6223 58.1235 35.7184 57.7434 35.8185 57.3633C35.8425 57.2753 35.8625 57.1872 35.8866 57.0992C35.9306 56.9392 35.9787 56.7751 36.0267 56.6151C36.0668 56.4831 36.1028 56.351 36.1469 56.219C36.1909 56.071 36.239 55.9229 36.287 55.7749C36.3391 55.6149 36.3911 55.4548 36.4472 55.2988C36.4913 55.1748 36.5313 55.0507 36.5753 54.9267C36.6715 54.6547 36.7716 54.3826 36.8797 54.1105C36.9157 54.0225 36.9518 53.9305 36.9878 53.8385C37.0679 53.6384 37.148 53.4344 37.2361 53.2343C37.2802 53.1303 37.3242 53.0303 37.3683 52.9263C37.4524 52.7302 37.5405 52.5302 37.6326 52.3341C37.6726 52.2421 37.7167 52.1541 37.7567 52.0621C37.8889 51.778 38.025 51.4979 38.1692 51.2139C38.2853 50.9898 38.4014 50.7658 38.5216 50.5417C38.5616 50.4657 38.6057 50.3897 38.6497 50.3097C38.7258 50.1656 38.8059 50.0216 38.886 49.8816C38.9381 49.7895 38.9941 49.6975 39.0462 49.6055C39.1183 49.4815 39.1904 49.3574 39.2664 49.2334C39.3265 49.1334 39.3866 49.0374 39.4507 48.9373C39.5227 48.8253 39.5908 48.7093 39.6629 48.5973C39.727 48.4932 39.7951 48.3932 39.8631 48.2892C39.9312 48.1852 39.9993 48.0771 40.0714 47.9731C40.1435 47.8651 40.2155 47.7611 40.2876 47.653C40.3557 47.557 40.4198 47.457 40.4879 47.361C40.5639 47.253 40.644 47.1409 40.7201 47.0329C40.7842 46.9409 40.8523 46.8529 40.9163 46.7608C41.0004 46.6488 41.0845 46.5408 41.1646 46.4288C41.2287 46.3447 41.2928 46.2607 41.3568 46.1767C41.445 46.0647 41.5331 45.9527 41.6212 45.8406C41.6852 45.7646 41.7453 45.6846 41.8094 45.6086C41.9015 45.4925 41.9976 45.3805 42.0937 45.2645C42.1538 45.1925 42.2138 45.1205 42.2739 45.0524C42.374 44.9364 42.4741 44.8204 42.5743 44.7044C42.6303 44.6404 42.6904 44.5763 42.7465 44.5123C42.8546 44.3923 42.9587 44.2723 43.0708 44.1562C43.1229 44.1002 43.1789 44.0442 43.231 43.9842C43.3471 43.8602 43.4593 43.7401 43.5794 43.6201C43.6275 43.5721 43.6755 43.5241 43.7236 43.4761C43.8477 43.3481 43.9719 43.224 44.1 43.096C44.1401 43.06 44.1761 43.02 44.2161 42.984C44.3523 42.8519 44.4925 42.7159 44.6326 42.5879C44.6566 42.5679 44.6807 42.5479 44.7007 42.5239C44.8569 42.3798 45.0131 42.2358 45.1692 42.0958C48.3449 39.2631 52.1012 37.0906 56.27 35.7343C62.309 33.7699 68.6563 33.6898 74.6231 35.4422C74.8514 35.5103 75.0797 35.5783 75.3079 35.6543C75.5322 35.7263 75.7604 35.8023 75.9847 35.8783C75.9927 35.8783 76.0007 35.8823 76.0047 35.8863C76.225 35.9624 76.4412 36.0384 76.6575 36.1184C76.6775 36.1264 76.6975 36.1344 76.7175 36.1424C76.9218 36.2184 77.122 36.2944 77.3262 36.3745C77.3663 36.3905 77.4063 36.4065 77.4464 36.4225C77.6306 36.4945 77.8148 36.5705 77.999 36.6465C78.0671 36.6745 78.1312 36.7025 78.1952 36.7305C78.3514 36.7985 78.5116 36.8666 78.6678 36.9386C78.7759 36.9866 78.88 37.0346 78.9842 37.0866C79.1043 37.1426 79.2204 37.1946 79.3406 37.2507C79.5168 37.3347 79.697 37.4267 79.8772 37.5147C79.9212 37.5387 79.9693 37.5587 80.0173 37.5827C80.3657 37.7588 80.7061 37.9428 81.0465 38.1349C81.0986 38.1629 81.1547 38.1949 81.2067 38.2229C81.5431 38.4149 81.8795 38.611 82.2119 38.811C82.2359 38.827 82.2599 38.839 82.284 38.855C82.9888 39.2911 83.6736 39.7512 84.3343 40.2353C88.3309 43.156 91.5466 46.9649 93.7532 51.3979C93.9013 51.698 94.0455 52.006 94.1857 52.3101C94.2217 52.3861 94.2577 52.4662 94.2898 52.5422C94.5701 53.1663 94.8304 53.7985 95.0667 54.4426C95.0987 54.5226 95.1267 54.6026 95.1548 54.6827C95.2709 55.0067 95.387 55.3308 95.4952 55.6629C95.6193 56.043 95.7354 56.4231 95.8436 56.8072C95.8636 56.8752 95.8796 56.9472 95.8996 57.0152C95.9877 57.3273 96.0718 57.6433 96.1479 57.9594C96.1599 58.0154 96.1719 58.0714 96.188 58.1275C96.268 58.4595 96.3441 58.7876 96.4122 59.1197C96.4202 59.1557 96.4242 59.1877 96.4322 59.2237C96.5043 59.5758 96.5684 59.9319 96.6285 60.288C96.6285 60.3 96.6285 60.316 96.6325 60.328C96.8848 61.8723 97.0209 63.4207 97.0369 64.969C97.069 67.9937 96.6605 71.0064 95.8115 73.9271L95.8315 73.9871ZM75.7324 65.3531C75.7324 70.7584 71.3314 75.1554 65.9211 75.1554C63.3221 75.1554 60.9554 74.1391 59.1974 72.4828C59.0933 72.3867 58.9932 72.2867 58.897 72.1867C58.881 72.1707 58.869 72.1587 58.853 72.1427C58.7529 72.0387 58.6528 71.9306 58.5566 71.8226C58.5446 71.8106 58.5366 71.7986 58.5246 71.7866C58.4205 71.6706 58.3244 71.5505 58.2243 71.4305C58.2243 71.4265 58.2163 71.4185 58.2123 71.4145C58.008 71.1584 57.8198 70.8944 57.6436 70.6183C57.6276 70.5943 57.6116 70.5703 57.5995 70.5423C57.5315 70.4343 57.4634 70.3263 57.3993 70.2142C57.3593 70.1462 57.3232 70.0782 57.2872 70.0102C57.2511 69.9422 57.2111 69.8702 57.1751 69.8021C57.131 69.7181 57.091 69.6341 57.0509 69.5501C57.0229 69.4941 56.9949 69.4341 56.9668 69.378C56.9268 69.286 56.8827 69.19 56.8467 69.094C56.8267 69.042 56.8066 68.994 56.7826 68.9419C56.7426 68.8379 56.7065 68.7379 56.6665 68.6339C56.6505 68.5899 56.6344 68.5419 56.6184 68.4978C56.5824 68.3898 56.5463 68.2778 56.5143 68.1698C56.5023 68.1298 56.4903 68.0857 56.4783 68.0457C56.4462 67.9297 56.4142 67.8137 56.3862 67.6977C56.3781 67.6616 56.3661 67.6256 56.3581 67.5856C56.3301 67.4656 56.3021 67.3416 56.278 67.2175C56.27 67.1855 56.266 67.1495 56.258 67.1175C56.234 66.9895 56.214 66.8615 56.1939 66.7294C56.1939 66.7014 56.1859 66.6734 56.1819 66.6454C56.1659 66.5094 56.1499 66.3734 56.1339 66.2373C56.1339 66.2133 56.1339 66.1933 56.1299 66.1693C56.1178 66.0253 56.1098 65.8812 56.1018 65.7372C56.0978 65.6092 56.0898 65.4771 56.0898 65.3451C56.0898 59.9399 60.4909 55.5429 65.9011 55.5429C67.1145 55.5429 68.2758 55.7669 69.3491 56.171C69.4332 56.203 69.5173 56.235 69.6014 56.271C69.6734 56.303 69.7455 56.331 69.8216 56.363C69.8977 56.3951 69.9738 56.4271 70.0499 56.4631C70.178 56.5231 70.3022 56.5831 70.4223 56.6471C70.4904 56.6831 70.5545 56.7191 70.6185 56.7551C70.7066 56.8032 70.7947 56.8552 70.8788 56.9032C70.9349 56.9352 70.991 56.9672 71.043 57.0032C71.1712 57.0832 71.2993 57.1632 71.4235 57.2513C71.4715 57.2833 71.5196 57.3193 71.5676 57.3513C71.6757 57.4273 71.7799 57.5033 71.884 57.5833C71.916 57.6033 71.944 57.6273 71.9721 57.6513C72.1042 57.7554 72.2284 57.8594 72.3525 57.9674C72.3846 57.9954 72.4126 58.0234 72.4446 58.0514C72.7049 58.2835 72.9532 58.5315 73.1895 58.7956C73.2055 58.8116 73.2215 58.8316 73.2375 58.8516C73.4818 59.1237 73.7101 59.4118 73.9223 59.7118C75.0476 61.3082 75.7124 63.2486 75.7124 65.3411L75.7324 65.3531Z" fill="white"/>
</g>
</g>
<defs>
<filter id="filter0_d_1288_11932" x="19.8623" y="19.3162" width="98.1278" height="97.1404" filterUnits="userSpaceOnUse" color-interpolation-filters="sRGB">
<feFlood flood-opacity="0" result="BackgroundImageFix"/>
<feColorMatrix in="SourceAlpha" type="matrix" values="0 0 0 0 0 0 0 0 0 0 0 0 0 0 0 0 0 0 127 0" result="hardAlpha"/>
<feOffset dx="4" dy="3"/>
<feGaussianBlur stdDeviation="1"/>
<feColorMatrix type="matrix" values="0 0 0 0 0 0 0 0 0 0 0 0 0 0 0 0 0 0 0.15 0"/>
<feBlend mode="normal" in2="BackgroundImageFix" result="effect1_dropShadow_1288_11932"/>
<feBlend mode="normal" in="SourceGraphic" in2="effect1_dropShadow_1288_11932" result="shape"/>
</filter>
<clipPath id="clip0_1288_11932">
<rect width="104.28" height="104.28" fill="white" transform="translate(13.2 15.8401)"/>
</clipPath>
</defs>
</svg>
