<svg width="24" height="24" viewBox="0 0 24 24" fill="none" xmlns="http://www.w3.org/2000/svg">
<g id="menu (1)">
<rect id="Rectangle" opacity="0.01" width="24" height="24" fill="white"/>
<path id="Combined Shape" fill-rule="evenodd" clip-rule="evenodd" d="M21.4204 5.20312H2.57959C2.13867 5.20312 1.78125 5.5389 1.78125 5.95312C1.78125 6.36735 2.13867 6.70312 2.57959 6.70312H21.4204C21.8613 6.70312 22.2188 6.36735 22.2188 5.95312C22.2188 5.5389 21.8613 5.20312 21.4204 5.20312ZM21.4204 11.25H2.57959C2.13867 11.25 1.78125 11.5858 1.78125 12C1.78125 12.4142 2.13867 12.75 2.57959 12.75H21.4204C21.8613 12.75 22.2188 12.4142 22.2188 12C22.2188 11.5858 21.8613 11.25 21.4204 11.25ZM2.57959 17.2969H21.4204C21.8613 17.2969 22.2188 17.6327 22.2188 18.0469C22.2188 18.4611 21.8613 18.7969 21.4204 18.7969H2.57959C2.13867 18.7969 1.78125 18.4611 1.78125 18.0469C1.78125 17.6327 2.13867 17.2969 2.57959 17.2969Z" fill="white"/>
</g>
</svg>
